# xmcd
#
# Track frame offsets: 
#        150
#        17660
#        36809
#        62420
#        79418
#        105224
#        118691
#        132619
#        153273
#        176287
#
# Disc length: 2509 seconds
#
# Revision: 0
# Processed by: cddbd v1.5.1PL0 Copyright (c) Steve Scherf et al.
# Submitted via: ExactAudioCopy v0.90b4
#
DISCID=7409cb0a
DTITLE=Jill Bradley - The Beauty of God
DYEAR=2002
DGENRE=Gospel
TTITLE0=Grace
TTITLE1=Strong Oak (Daddy's Song"
TTITLE2=Nearer My God To Thee
TTITLE3=Potter's Work
TTITLE4=It Is Well With My Soul
TTITLE5=God Will Make A Way
TTITLE6=Fly High (Joshua's Song)
TTITLE7=Every Hour and Every Day
TTITLE8=Wait Upon The Lord
TTITLE9=Be Thou My Vision
EXTD=
EXTT0=
EXTT1=
EXTT2=
EXTT3=
EXTT4=
EXTT5=
EXTT6=
EXTT7=
EXTT8=
EXTT9=
PLAYORDER=
